# xmcd CD database file
#
# Track frame offsets:
#	150
#	14927
#	32704
#	58131
#
# Disc length: 1037 seconds
#
# Revision: 0
# Processed by: cddbd v1.4PL0 Copyright (c) Steve Scherf et al.
# Submitted via: CDex 1.50Beta7
#
DISCID=35040b04
DTITLE=Dr. Ott und die Lehrer - Nicht versetzt
DYEAR=1996
DGENRE=Jazz
TTITLE0=Nicht versetzt (Basic Radio Edit)
TTITLE1=Nicht versetzt  (Basic Radio Edit)
TTITLE2=Nicht versetzt  (Extended-Version)
TTITLE3=Rubber Soul
EXTD=YEAR: 1996
EXTT0=
EXTT1=
EXTT2=
EXTT3=
PLAYORDER=
